<?xml version="1.0" encoding="UTF-8"?>
<!DOCTYPE svg PUBLIC "-//W3C//DTD SVG 1.1//EN" "http://www.w3.org/Graphics/SVG/1.1/DTD/svg11.dtd">
<svg xmlns="http://www.w3.org/2000/svg" xml:space="preserve" width="500px" height="165px" version="1.1" style="shape-rendering:geometricPrecision; text-rendering:geometricPrecision; image-rendering:optimizeQuality; fill-rule:evenodd; clip-rule:evenodd"
viewBox="0 0 500 165"
 xmlns:xlink="http://www.w3.org/1999/xlink"
 xmlns:xodm="http://www.corel.com/coreldraw/odm/2003">
 <defs>
  <style type="text/css">
   <![CDATA[
    .fil0 {fill:#ffff;fill-rule:nonzero}
   ]]>
  </style>
 </defs>
 <g id="Camada_x0020_1">
  <metadata id="CorelCorpID_0Corel-Layer"/>
  <g id="_2324817287136">
   <path class="fil0" d="M191.16 144c-18.6,-12.08 -43.85,-14.2 -84.57,-2.82 -43.41,10.28 -57.89,16.87 -76.89,3.64 -7.31,-6.49 -9.92,-16.96 -7.97,-32.03 4.53,-24.57 16.79,-48.22 38.55,-74.45 12.15,-13.64 23.42,-25.35 38.3,-30.05 11.41,-2.95 10.34,6.08 8.96,7.37 -1.45,0 -3.9,0.23 -5.79,1.48 -1.54,1.19 -5.75,5.07 -5.97,10.28 -0.33,7.97 7.86,6.31 11.39,1.93 3.81,-4.93 9.43,-14.38 5.01,-23.19 -1.86,-3.13 -5.06,-5.3 -9.04,-6.03 -13.63,-0.79 -26.32,5.76 -38.03,13 -25.61,17.93 -46.1,42.77 -57.7,69.97 -6.68,16.41 -12.73,39.92 -3.66,59.05 7.01,13.28 21.56,20.33 38.92,18.85 12.18,-1.28 26.9,-5.25 36.8,-7.65 9.91,-2.4 60.6,-19.96 77.26,10.61 0,0 5.54,-10.84 19.38,-11.07 11.38,-1.06 27.79,3.32 39.75,12.17 -3.98,-6.04 -15.28,-14.93 -24.7,-21.06z"/>
   <path class="fil0" d="M111.76 41.43c-9.48,-6.27 -28.54,5.72 -43.8,26.27 -13.96,18.44 -19.99,39.88 -13.43,49.79 9.76,11.66 27.87,-5.3 35.57,-14.38l1 -1.06c5.24,-5.67 9.28,-12.5 13.2,-19.04 0,0 3.6,-6 3.77,-6.27 2.23,-0.42 4.91,-1.06 7.93,-1.94 -0.05,0.14 -11.56,19.64 -10.38,29.32 0.36,2.95 0.08,13.74 10.53,17.01 13.93,2.35 25.05,-8.53 34.86,-18.21 0,0 1.68,-1.61 2.62,-2.53 -0.24,0.96 -0.55,2.25 -0.55,2.25 -4.08,14.29 1.42,17.29 4.86,18.4 10.39,3.04 22.8,-12.17 22.84,-12.17 -0.32,4.79 -1.26,8.76 3.75,11.94 4.73,1.7 9.52,-0.9 13.16,-3.34 13.11,-9.31 23.67,-23.89 32.2,-36.48l-5.44 -0.01c-0.07,0 -13.43,19.52 -22.11,23.77 -0.01,0 -1.59,0.81 -2.5,0.17 -1.13,-0.97 -0.68,-2.98 0.01,-4.41 0.05,-0.09 33.51,-58.58 33.51,-58.58l-15.8 0c0,0 -1.73,2.82 -1.87,3 -0.1,-0.09 -0.36,-0.57 -0.53,-0.81 -9.79,-13.64 -31.95,7.35 -48.64,31.69 -6.42,9.35 -14.6,19.89 -23.08,27.5 0,0 -12.57,11.6 -17.94,3.27 -1.96,-3.51 -1.36,-8.63 -0.25,-12 6.25,-17.93 17.02,-34.2 29.28,-44.02 3.46,-2.72 7.22,-3.51 9.09,-2.35 1.78,1.06 2.06,3.68 0.94,5.48 -2.86,-0.09 -5.15,0.78 -7.01,2.72 -3.66,3.87 -4.93,7.61 -3.77,11.11 5.66,8.11 16.94,-7.93 16.4,-17.7 -0.2,-3.51 -2.05,-6.82 -4.82,-8.44 -4.13,-2.49 -10.42,-1.84 -14.49,0.14 -5.46,2.08 -14.09,9.31 -19.13,14.94 -6.34,7.05 -17.22,14.89 -20.62,14.01 1.11,-3 10.3,-21.94 0.64,-29.04l0 0zm76.16 28.03c3.07,-4.29 12.02,-15.77 14.2,-17.71 7.33,-6.5 10.26,-3.64 10.52,-1.61 -6.85,12.35 -14.93,26.51 -22.52,39.23 0.01,-0.04 -2.38,3.64 -2.38,3.64 -3.35,5.16 -6.73,9.59 -12.24,12.68 -0.78,0.23 -2.08,0.32 -2.94,-0.33 -1.04,-0.69 -1.45,-1.84 -1.33,-3.04 0.33,-3.96 4.33,-16.08 16.69,-32.86l0 0zm-85.94 7.42c0,0 -0.14,0.41 -0.21,0.55 -0.01,0 -6.88,11.29 -6.88,11.29 -4.15,5.58 -9.33,12.59 -15.8,15.95 -1.92,0.65 -4.57,1.06 -5.92,-0.64 -2.86,-3.46 -1.39,-8.25 -0.19,-12.12l0.43 -1.39c3.44,-9.4 8.89,-17.7 14.2,-25.4 0.07,-0.04 0.22,-0.09 0.27,-0.09 0.01,0.05 0.04,0.05 0.04,0.14 3.34,6.45 9.59,9.45 14.26,10.83 0.03,0 0.06,0.05 0.06,0.14 0,0.14 -0.08,0.32 -0.26,0.74zm6.51 -13.32c-0.03,0.09 -3.06,7.09 -3.06,7.09 -0.44,0.37 -1.13,0.19 -1.93,0l-1.36 -0.23c-4.27,-1.33 -7.49,-4.19 -8.48,-7.6 -1.37,-6.64 4.26,-11.85 6.74,-13.74 2.37,-1.66 6.07,-2.54 8.22,-0.83 1.32,1.57 1.83,3.6 1.83,5.81 0,3 -0.92,6.36 -1.96,9.5zm199.71 21.38c-1.52,-3.31 -5.14,-5.44 -8.99,-5.21 -12.52,1.16 -24.76,11.53 -31.18,26.42 -3.38,7.65 -5.22,13.97 -6.42,24.01 3.89,-4.51 11.83,-11.93 20.83,-15.99 0,0 1.23,-9.63 7.48,-18.21 2.36,-3.55 7.1,-9.26 12.41,-7.74 4.64,1.56 3.01,14.52 -3.16,27.05 -4.57,9.23 -11.55,18.45 -18.62,24.81 -6.25,5.34 -15.5,11.8 -23.59,6.82 -5.1,-3.04 -7.7,-9.41 -7.15,-17.61 2.43,-23.28 12.95,-43.1 28,-65.69 15.51,-20.97 32.61,-42.5 55.65,-53.98 4.7,-2.4 9.05,-2.95 12.82,-1.47 0,0 -21.63,11.98 -31.94,34.15 -2.62,5.63 -6.27,13.23 -2.6,19.96 1.92,3.51 5.33,3.79 8.07,3.6 12.64,-2.95 20.8,-14.84 27.48,-25.72 3.86,-8.25 7.3,-16.46 7.3,-25.59 0,-1.1 -0.06,-2.58 -0.15,-3.68 6.04,-3.23 18.42,2.49 18.42,2.49 9.67,3.22 30.27,19.13 37.22,22.17 3.39,-3.96 8.96,-9.96 12.1,-12.95l-4.54 -2.82c-7.27,-4.47 -14.95,-8.71 -22.52,-12.9 -17.17,-9.45 -31.15,-6.13 -38.27,-3.55 -2.79,1.01 -5.35,1.89 -5.35,1.89 -5.28,-5.81 -13.94,-5.26 -20.32,-3.69 -22.94,6.64 -44.25,22.82 -67.09,50.89 -16.79,21.99 -27.21,40.98 -32.76,59.74 -4.28,12.64 -5.58,31.21 4.87,42.23 8.87,9.36 20.65,7.33 28.97,3.97 18.01,-8.95 34.21,-28.22 42.28,-50.39 1.94,-6.59 4.1,-15.9 0.75,-23l0 -0.01zm41.43 -69.47c-2.38,27.57 -23.65,43.75 -28.91,45.04 -3.19,0.65 -8.63,-0.78 -3.77,-12.35 7.15,-15.58 19.36,-28.81 32.46,-35.59 0.32,1.15 0.31,1.89 0.22,2.9zm126.12 3.51c-11.43,6.54 -23.29,10.78 -37.64,9.31 -3.98,4.52 -7.85,9.17 -11.42,13.97 20.14,5.16 41.5,-6.32 53.41,-17.24 12.6,-11.02 19.06,-24.89 19.06,-24.89 0,0 -9.45,10.87 -23.4,18.85l-0.01 0zm-216.14 22.95l-15 0 -8.46 13.86 15 0 8.46 -13.86z"/>
   <path class="fil0" d="M438.05 145.28c-1.61,1.11 -3.88,0.25 -3.03,-2.28 2.11,-6.45 10.5,-19.61 10.5,-19.61l23.37 -41.77 -16.01 0c-0.76,1.26 -2.38,4.15 -2.38,4.15 -0.75,-1.25 -2.96,-4.01 -3.87,-4.61 -3.91,-2.49 -9.65,-1.31 -13.61,0.95 -17.21,10.14 -29.77,30.18 -39.68,45.81 0,0 -10.42,17.37 -16.21,18.66 -4.52,0.37 -4.05,-5.76 -3.85,-7.19 1.74,-10.33 5.8,-20.15 9.89,-29.05 8.31,-5.8 17.8,-13.41 26.42,-21.75 18.71,-18.03 34.49,-38.45 36.79,-43.01 0,0 -2.49,0.5 -5.44,0.6 -14.4,20.23 -43.85,49.64 -52.78,54.02 3.95,-9.59 29.51,-55.36 51.26,-77.26l3.43 -3.32c5.29,-5.21 10.77,-10.55 15.05,-11.43 0.45,-0.05 1.03,0 1.53,1.06 0.19,4.06 -1.3,7.05 -3.02,10.47l-2.41 4.97c0,0 3.41,-0.64 5.65,-1.38 2.6,-4.93 5.48,-10.46 4.42,-17.05 -0.36,-2.13 -1.88,-3.74 -3.87,-4.11 -6.49,-1.24 -13.56,3.6 -19.25,7.52l-0.23 0.13c-29.25,23.1 -53.95,56.38 -75.55,101.83 -1.56,1.2 -7.61,2.63 -8.64,1.94 2.14,-4.43 4.82,-10.37 6.17,-16.83 0.23,-1.84 0.44,-3.73 0.44,-5.57 0,-3.97 -0.94,-7.7 -4.47,-10.28 -4.13,-2.08 -9.24,-1.11 -12.69,0.46 -15.43,6.45 -26.97,22.4 -35.3,35.54 -4.47,8.34 -8.94,17.28 -10.17,27.52 -0.88,8.02 0.9,13.18 5.42,15.76 4.65,2.4 10.51,-0.09 12.81,-1.29 15.64,-8.3 26.57,-24.94 35.18,-40.15 0.34,-0.05 5.04,-0.18 8.6,-1.11 0.05,0 0.07,0 0.15,0.05 -0.21,0.69 -2.04,6.22 -2.04,6.22 -5.46,16.14 -7.99,27.11 -2.83,33.61 7.37,9.17 19.57,-0.32 29.49,-12.86 -2.13,15.02 5.6,17.38 11.49,16.22 6.76,-1.84 14.3,-9.12 17.8,-12.86 -1.12,4.38 -0.81,12.22 5.34,13 4.22,0.79 7.38,-1.52 11.03,-3.51 13.11,-7.19 28.8,-31.15 32.87,-38.08l-5.34 0c-5.79,8.82 -13.16,20.38 -22.43,25.87zm-117.64 -1.61c-0.83,-1.24 -1.1,-2.6 -1.13,-4.07 -0.16,-9.04 9.49,-25.23 16.3,-34.05l0.01 0c2.86,6.3 9.32,10.35 13.22,12.06 -4.84,10.88 -21.46,34.18 -28.4,26.06l0 0zm31.14 -30.93c-0.46,0.33 -8.61,-2.44 -10.19,-10.05 -1.33,-6.55 3.14,-11.66 7.47,-14.24 1.86,-1.48 4.66,-1.98 6.71,-1.25 1.91,1.3 2.42,3.6 2.42,6.09 0,1.52 -0.2,3.09 -0.38,4.52l-0.03 0.32c-1.37,5.1 -3.39,10.02 -6,14.61l0 0zm71.37 13.42c-0.01,0 -1.55,1.38 -1.55,1.38 -2.2,1.98 -4.46,4.1 -7.19,3.04 -0.76,-0.27 -1.29,-1.29 -1.41,-2.07 -0.13,-5.67 2.41,-10.93 4.86,-16.04l0.63 -1.34c7.07,-11.89 15.29,-25.91 27.35,-35.63 2.03,-1.48 4.24,-2.72 6.57,-1.76 0.54,0.51 1.16,1.39 1.16,2.26 0,0.28 -0.25,1.02 -0.39,1.25 -3.37,5.49 -6.58,11.25 -9.7,16.78 -6.09,10.92 -12.42,22.21 -20.33,32.13l0 0z"/>
  </g>
 </g>
</svg>